# xmcd
#
# Track frame offsets:
#  150
#  11845
#  23330
#  35505
#  54113
#  65983
#  85870
#  102213
#  113023
#  132835
#  144068
#  158430
#
# Disc length: 2353 seconds
#
# Revision: 0
# Processed by: cddbd v1.5.1PL2 Copyright (c) Steve Scherf et al.
# Submitted via: AltoMP3_Maker 3.0
#
DISCID=88092f0c
DTITLE=HOLS - Puppy Love
DYEAR=1900
DGENRE=
TTITLE0=Puppy Love (Paul Aka) CGS Spanka mc*
TTITLE1=Love fot fools ( Paul Perry)
TTITLE2=I love my dog (Cat Stevens) Decca*
TTITLE3=Hols song 'That's my doggy' (Paul Perry)
TTITLE4=I've Been Working like a dog (Lennon/Mc)
TTITLE5=It's raining outside (Paul Perry)
TTITLE6=Here is that feelin' again (Paul Perry)
TTITLE7=Hounddag (Lieber/Stoller) Elvis Presley*
TTITLE8=Reflections (Paul Perry)
TTITLE9=Birddog (Bryant) Everly Brothers*
TTITLE10=Me and you and a dog named Boo*
TTITLE11=I'm feelin' blue (Paul Perry)
EXTD=
EXTT0=
EXTT1=
EXTT2=
EXTT3=
EXTT4=
EXTT5=
EXTT6=
EXTT7=
EXTT8=
EXTT9=
EXTT10=
EXTT11=
PLAYORDER=
